Coordinates
version=1
nRows=8
nColumns=36
inDegrees=yes

Units are S.I. units (second, meters, Newtons, ...)
If the header above contains a line with 'inDegrees', this indicates whether rotational values are in degrees (yes) or radians (no).

endheader
time	pelvis_tilt	pelvis_list	pelvis_rotation	pelvis_tx	pelvis_ty	pelvis_tz	hip_flexion_r	hip_adduction_r	hip_rotation_r	knee_angle_r	knee_angle_r_beta	ankle_angle_r	subtalar_angle_r	mtp_angle_r	hip_flexion_l	hip_adduction_l	hip_rotation_l	knee_angle_l	knee_angle_l_beta	ankle_angle_l	subtalar_angle_l	mtp_angle_l	lumbar_extension	lumbar_bending	lumbar_rotation	arm_flex_r	arm_add_r	arm_rot_r	elbow_flex_r	pro_sup_r	arm_flex_l	arm_add_l	arm_rot_l	elbow_flex_l	pro_sup_l
      7.06000000	    -21.78940130	     -0.77439571	     -1.05343820	     -0.15728955	      0.98286875	     -0.71459451	     28.84760281	     -8.20487832	     -3.22482223	      7.96195166	      0.13896227	    -20.59284701	     -6.01873069	     -7.49999987	     31.22748668	     -8.79098283	     -8.97723583	     12.39618052	      0.21635416	    -21.14094704	     -4.43956021	     -7.49999987	    -14.24815711	     -0.40697663	      0.93581435	      6.35660231	    -13.03052137	    -10.34980210	    117.13929068	     98.55298381	     -1.94037118	     -8.14983719	    -12.37698337	    112.39744546	    103.33656751
      7.07000000	    -21.55774608	     -0.90678477	     -0.99160537	     -0.15636609	      0.98196084	     -0.71464257	     28.77400801	     -8.16989566	     -3.13092095	      8.55046979	      0.14923385	    -20.27011172	     -6.17853864	     -7.49999987	     31.12324623	     -8.94578119	     -8.70245836	     12.82195126	      0.22378527	    -20.77649691	     -4.50778221	     -7.49999987	    -14.29329845	     -0.38179896	      0.93713241	      6.70225946	    -13.20470328	    -10.39219956	    117.28988832	     98.56553442	     -1.75551014	     -8.37611664	    -12.33957706	    112.50738935	    103.35604476
      7.08000000	    -21.64397175	     -1.00306160	     -0.82074340	     -0.15571177	      0.98004931	     -0.71503375	     29.12063714	     -8.27758671	     -3.38931894	      9.34850959	      0.16316227	    -19.04051607	     -6.27754057	     -7.49999987	     31.44545394	     -9.00761121	     -8.29926126	     13.43452651	      0.23447672	    -19.46946300	     -4.51240373	     -7.49999987	    -13.98944148	     -0.34271422	      0.81508091	      6.89515464	    -13.33953827	    -10.46232006	    117.48514471	     98.59384906	     -1.72599113	     -8.55601112	    -12.27476849	    112.70312856	    103.40392590
      7.09000000	    -21.70907821	     -1.04028491	     -0.66649248	     -0.15542463	      0.97804617	     -0.71532979	     29.45115933	     -8.42294585	     -3.44550665	     10.07413428	      0.17582681	    -18.49536508	     -6.27052516	     -7.49999987	     31.70951979	     -9.02543727	     -7.92919492	     13.93334882	      0.24318281	    -18.88774216	     -4.45778907	     -7.49999987	    -13.79586796	     -0.37429157	      0.68860183	      7.21089863	    -13.37849341	    -10.54110326	    117.58985514	     98.60598428	     -1.60520647	     -8.74384684	    -12.25380871	    112.76157089	    103.41975742
      7.10000000	    -22.13107271	     -1.22482923	     -0.50600883	     -0.15557207	      0.97535368	     -0.71541839	     30.19038082	     -8.41816955	     -3.76600229	     10.88543898	      0.18998675	    -17.30266121	     -6.08207599	     -7.49999987	     32.44986351	     -9.21914020	     -7.71464404	     14.54487252	      0.25385591	    -17.61975865	     -4.23912099	     -7.49999987	    -13.21527237	     -0.26376554	      0.55638757	      7.37153681	    -13.51914072	    -10.56332618	    117.63952490	     98.61822966	     -1.66097963	     -8.87182676	    -12.35183256	    112.86581640	    103.43074290
      7.11000000	    -22.34602950	     -1.39592584	     -0.45768023	     -0.15578469	      0.97309155	     -0.71542716	     30.70856882	     -8.37050568	     -4.05326339	     11.60837481	      0.20260436	    -16.36477577	     -5.72961850	     -7.49999987	     32.89629988	     -9.45867912	     -7.77429859	     15.06627687	      0.26295614	    -16.49166479	     -3.82266996	     -7.49999987	    -12.96119589	     -0.16496133	      0.51276790	      7.65091868	    -13.63721718	    -10.56919350	    117.68178525	     98.63243391	     -1.64865147	     -8.90624049	    -12.47870921	    112.91626290	    103.42897292
      7.12000000	    -22.38663729	     -1.45652519	     -0.36189352	     -0.15578908	      0.97132452	     -0.71598616	     30.80948525	     -8.43850827	     -4.07488322	     11.82826293	      0.20644213	    -16.23108223	     -5.70540754	     -7.49999987	     32.93683867	     -9.44548036	     -7.82181866	     15.10145370	      0.26357009	    -16.27371639	     -3.82112079	     -7.49999987	    -12.98717557	     -0.12197899	      0.41762417	      7.96790904	    -13.83056034	    -10.72185560	    117.70995952	     98.62960355	     -1.52561614	     -8.92747632	    -12.49146414	    112.87951184	    103.42308354
      7.13000000	    -22.66449331	     -1.46246898	     -0.25414839	     -0.15598104	      0.96900467	     -0.71660483	     31.46455849	     -8.68340167	     -4.84527728	     12.72359827	      0.22206868	    -14.42200887	     -4.49999807	     -7.49999987	     33.38742536	     -9.39958689	     -7.96452798	     15.57247955	      0.27179104	    -14.48025137	     -3.14823883	     -7.49999987	    -12.72123632	     -0.14705710	      0.32486055	      8.12262911	    -13.85449689	    -10.76859582	    117.68233575	     98.63564655	     -1.56816832	     -8.88966855	    -12.49883618	    112.79438796	    103.37749840
